{
  "accessors": [
    {
      "bufferView": 2,
      "componentType": 5126,
      "count": 1293,
      "max": [
        1.0997099876403809,
        0.97676002979278564,
        0.70851999521255493
      ],
      "min": [
        -1.1046799421310425,
        -3.2175700664520264,
        -1.3056199550628662
      ],
      "type": "VEC3"
    },
    {
      "bufferView": 2,
      "byteOffset": 15516,
      "componentType": 5126,
      "count": 1293,
      "max": [
        0.99928480386734009,
        0.9963182806968689,
        0.99852615594863892
      ],
      "min": [
        -0.99762701988220215,
        -0.98065996170043945,
        -0.99972951412200928
      ],
      "type": "VEC3"
    },
    {
      "bufferView": 3,
      "componentType": 5126,
      "count": 1293,
      "max": [
        0.99993008375167847,
        0.99975419044494629,
        0.99934864044189453,
        1
      ],
      "min": [
        -0.99894654750823975,
        -0.99895328283309937,
        -0.99520695209503174,
        -1
      ],
      "type": "VEC4"
    },
    {
      "bufferView": 1,
      "componentType": 5126,
      "count": 1293,
      "max": [
        0.98045998811721802,
        0.96969997882843018
      ],
      "min": [
        0.022059999406337738,
        0.010940000414848328
      ],
      "type": "VEC2"
    },
    {
      "bufferView": 0,
      "componentType": 5125,
      "count": 2082,
      "max": [
        1292
      ],
      "min": [
        0
      ],
      "type": "SCALAR"
    }
  ],
  "asset": {
    "extras": {
      "author": "MrEmjeR (https://sketchfab.com/MatthijsDeRijk)",
      "license": "CC-BY-4.0 (http://creativecommons.org/licenses/by/4.0/)",
      "source": "https://sketchfab.com/models/f1ac87efb9fd46c8bcd6ef1476423b41",
      "title": "Grabbing Mermaid"
    },
    "generator": "Sketchfab-3.19.6",
    "version": "2.0"
  },
  "bufferViews": [
    {
      "buffer": 0,
      "byteLength": 8328,
      "byteOffset": 0,
      "name": "floatBufferViews",
      "target": 34963
    },
    {
      "buffer": 0,
      "byteLength": 10344,
      "byteOffset": 8328,
      "byteStride": 8,
      "name": "floatBufferViews",
      "target": 34962
    },
    {
      "buffer": 0,
      "byteLength": 31032,
      "byteOffset": 18672,
      "byteStride": 12,
      "name": "floatBufferViews",
      "target": 34962
    },
    {
      "buffer": 0,
      "byteLength": 20688,
      "byteOffset": 49704,
      "byteStride": 16,
      "name": "floatBufferViews",
      "target": 34962
    }
  ],
  "buffers": [
    {
      "byteLength": 70392,
      "uri": "scene.bin"
    }
  ],
  "images": [
    {
      "uri": "textures/Objects_baseColor.png"
    },
    {
      "uri": "textures/Objects_metallicRoughness.png"
    }
  ],
  "materials": [
    {
      "doubleSided": true,
      "emissiveFactor": [
        0,
        0,
        0
      ],
      "name": "Objects",
      "pbrMetallicRoughness": {
        "baseColorFactor": [
          1,
          1,
          1,
          1
        ],
        "baseColorTexture": {
          "index": 0,
          "texCoord": 0
        },
        "metallicFactor": 1,
        "metallicRoughnessTexture": {
          "index": 1,
          "texCoord": 0
        },
        "roughnessFactor": 1
      }
    }
  ],
  "meshes": [
    {
      "name": "VikingShipObjects.108_0",
      "primitives": [
        {
          "attributes": {
            "NORMAL": 1,
            "POSITION": 0,
            "TANGENT": 2,
            "TEXCOORD_0": 3
          },
          "indices": 4,
          "material": 0,
          "mode": 4
        }
      ]
    }
  ],
  "nodes": [
    {
      "children": [
        1
      ],
      "name": "RootNode (gltf orientation matrix)",
      "rotation": [
        -0.70710678118654746,
        -0,
        -0,
        0.70710678118654757
      ]
    },
    {
      "children": [
        2
      ],
      "name": "RootNode (model correction matrix)"
    },
    {
      "children": [
        3
      ],
      "name": "Root"
    },
    {
      "children": [
        4
      ],
      "matrix": [
        1,
        0,
        0,
        0,
        0,
        1,
        0,
        0,
        0,
        0,
        1,
        0,
        6.0223299999999993,
        0,
        0,
        1
      ],
      "name": "VikingShipObjects.108"
    },
    {
      "mesh": 0,
      "name": "VikingShipObjects.108_0"
    }
  ],
  "samplers": [
    {
      "magFilter": 9729,
      "minFilter": 9987,
      "wrapS": 10497,
      "wrapT": 10497
    }
  ],
  "scene": 0,
  "scenes": [
    {
      "name": "OSG_Scene",
      "nodes": [
        0
      ]
    }
  ],
  "textures": [
    {
      "sampler": 0,
      "source": 0
    },
    {
      "sampler": 0,
      "source": 1
    }
  ]
}

