{
  "accessors": [
    {
      "bufferView": 2,
      "componentType": 5126,
      "count": 65532,
      "max": [
        71.929000854492188,
        92.389701843261719,
        72.015800476074219
      ],
      "min": [
        -69.71099853515625,
        -80.685699462890625,
        -2.4890000820159912
      ],
      "type": "VEC3"
    },
    {
      "bufferView": 2,
      "byteOffset": 786384,
      "componentType": 5126,
      "count": 65532,
      "max": [
        0.99999237060546875,
        0.99987661838531494,
        0.9999847412109375
      ],
      "min": [
        -0.9999772310256958,
        -0.99997353553771973,
        -0.99933266639709473
      ],
      "type": "VEC3"
    },
    {
      "bufferView": 3,
      "componentType": 5126,
      "count": 65532,
      "max": [
        0.99997633695602417,
        0.99998468160629272,
        0.99976164102554321,
        1
      ],
      "min": [
        -0.99997901916503906,
        -0.99998658895492554,
        -0.99926793575286865,
        -1
      ],
      "type": "VEC4"
    },
    {
      "bufferView": 1,
      "componentType": 5126,
      "count": 65532,
      "max": [
        0.9879000186920166,
        0.99959999322891235
      ],
      "min": [
        0.0010000000474974513,
        0.0038000000640749931
      ],
      "type": "VEC2"
    },
    {
      "bufferView": 0,
      "componentType": 5125,
      "count": 333975,
      "max": [
        65531
      ],
      "min": [
        0
      ],
      "type": "SCALAR"
    },
    {
      "bufferView": 2,
      "byteOffset": 1572768,
      "componentType": 5126,
      "count": 65532,
      "max": [
        62.723701477050781,
        61.171298980712891,
        78.574600219726562
      ],
      "min": [
        -69.997901916503906,
        -79.460296630859375,
        15.810099601745605
      ],
      "type": "VEC3"
    },
    {
      "bufferView": 2,
      "byteOffset": 2359152,
      "componentType": 5126,
      "count": 65532,
      "max": [
        0.9999622106552124,
        0.99990653991699219,
        0.99997866153717041
      ],
      "min": [
        -0.9999772310256958,
        -0.99997353553771973,
        -0.9994361400604248
      ],
      "type": "VEC3"
    },
    {
      "bufferView": 3,
      "byteOffset": 1048512,
      "componentType": 5126,
      "count": 65532,
      "max": [
        0.99999678134918213,
        0.99991172552108765,
        0.99995505809783936,
        1
      ],
      "min": [
        -0.9999958872795105,
        -0.99999117851257324,
        -0.99988889694213867,
        -1
      ],
      "type": "VEC4"
    },
    {
      "bufferView": 1,
      "byteOffset": 524256,
      "componentType": 5126,
      "count": 65532,
      "max": [
        0.99430000782012939,
        0.99949997663497925
      ],
      "min": [
        0.002899999963119626,
        0.0038999998942017555
      ],
      "type": "VEC2"
    },
    {
      "bufferView": 0,
      "byteOffset": 1335900,
      "componentType": 5125,
      "count": 310263,
      "max": [
        65531
      ],
      "min": [
        0
      ],
      "type": "SCALAR"
    },
    {
      "bufferView": 2,
      "byteOffset": 3145536,
      "componentType": 5126,
      "count": 62619,
      "max": [
        71.069801330566406,
        90.320396423339844,
        79.051101684570312
      ],
      "min": [
        -72.753501892089844,
        -80.510299682617188,
        -2.2725000381469727
      ],
      "type": "VEC3"
    },
    {
      "bufferView": 2,
      "byteOffset": 3896964,
      "componentType": 5126,
      "count": 62619,
      "max": [
        0.99996960163116455,
        0.99999010562896729,
        0.99999856948852539
      ],
      "min": [
        -0.99994075298309326,
        -0.99999988079071045,
        -0.99993014335632324
      ],
      "type": "VEC3"
    },
    {
      "bufferView": 3,
      "byteOffset": 2097024,
      "componentType": 5126,
      "count": 62619,
      "max": [
        0.99998557567596436,
        0.99998021125793457,
        0.99997830390930176,
        1
      ],
      "min": [
        -0.99998509883880615,
        -0.99995124340057373,
        -0.99955141544342041,
        -1
      ],
      "type": "VEC4"
    },
    {
      "bufferView": 1,
      "byteOffset": 1048512,
      "componentType": 5126,
      "count": 62619,
      "max": [
        0.99589997529983521,
        0.99980002641677856
      ],
      "min": [
        0.0034000000450760126,
        0.0031999999191612005
      ],
      "type": "VEC2"
    },
    {
      "bufferView": 0,
      "byteOffset": 2576952,
      "componentType": 5125,
      "count": 300219,
      "max": [
        62618
      ],
      "min": [
        0
      ],
      "type": "SCALAR"
    }
  ],
  "asset": {
    "extras": {
      "author": "CaptainObvious (https://sketchfab.com/CaptainObvious)",
      "license": "CC-BY-4.0 (http://creativecommons.org/licenses/by/4.0/)",
      "source": "https://sketchfab.com/models/56651863b1a34eaa9f9255716ca7a2df",
      "title": "Pavona Coral"
    },
    "generator": "Sketchfab-3.18.6",
    "version": "2.0"
  },
  "bufferViews": [
    {
      "buffer": 0,
      "byteLength": 3777828,
      "byteOffset": 0,
      "name": "floatBufferViews",
      "target": 34963
    },
    {
      "buffer": 0,
      "byteLength": 1549464,
      "byteOffset": 3777828,
      "byteStride": 8,
      "name": "floatBufferViews",
      "target": 34962
    },
    {
      "buffer": 0,
      "byteLength": 4648392,
      "byteOffset": 5327292,
      "byteStride": 12,
      "name": "floatBufferViews",
      "target": 34962
    },
    {
      "buffer": 0,
      "byteLength": 3098928,
      "byteOffset": 9975684,
      "byteStride": 16,
      "name": "floatBufferViews",
      "target": 34962
    }
  ],
  "buffers": [
    {
      "byteLength": 13074612,
      "uri": "scene.bin"
    }
  ],
  "images": [
    {
      "uri": "textures/SfM_001_02Material__26_emissive.jpeg"
    },
    {
      "uri": "textures/SfM_001_02Material__26_baseColor.jpeg"
    }
  ],
  "materials": [
    {
      "doubleSided": true,
      "emissiveFactor": [
        0,
        0,
        0
      ],
      "emissiveTexture": {
        "index": 0,
        "texCoord": 0
      },
      "name": "SfM_001_02Material__26",
      "pbrMetallicRoughness": {
        "baseColorFactor": [
          1,
          1,
          1,
          1
        ],
        "baseColorTexture": {
          "index": 1,
          "texCoord": 0
        },
        "metallicFactor": 0,
        "roughnessFactor": 0.59999999999999998
      }
    }
  ],
  "meshes": [
    {
      "primitives": [
        {
          "attributes": {
            "NORMAL": 1,
            "POSITION": 0,
            "TANGENT": 2,
            "TEXCOORD_0": 3
          },
          "indices": 4,
          "material": 0,
          "mode": 4
        }
      ]
    },
    {
      "primitives": [
        {
          "attributes": {
            "NORMAL": 6,
            "POSITION": 5,
            "TANGENT": 7,
            "TEXCOORD_0": 8
          },
          "indices": 9,
          "material": 0,
          "mode": 4
        }
      ]
    },
    {
      "primitives": [
        {
          "attributes": {
            "NORMAL": 11,
            "POSITION": 10,
            "TANGENT": 12,
            "TEXCOORD_0": 13
          },
          "indices": 14,
          "material": 0,
          "mode": 4
        }
      ]
    }
  ],
  "nodes": [
    {
      "children": [
        1
      ],
      "name": "RootNode (gltf orientation matrix)",
      "rotation": [
        -0.70710678118654746,
        -0,
        -0,
        0.70710678118654757
      ]
    },
    {
      "children": [
        2
      ],
      "name": "RootNode (model correction matrix)"
    },
    {
      "children": [
        3,
        4,
        5
      ],
      "name": "SfM_001_02.obj.cleaner.materialmerger.gles"
    },
    {
      "mesh": 0,
      "name": ""
    },
    {
      "mesh": 1,
      "name": ""
    },
    {
      "mesh": 2,
      "name": ""
    }
  ],
  "samplers": [
    {
      "magFilter": 9729,
      "minFilter": 9987,
      "wrapS": 10497,
      "wrapT": 10497
    }
  ],
  "scene": 0,
  "scenes": [
    {
      "name": "OSG_Scene",
      "nodes": [
        0
      ]
    }
  ],
  "textures": [
    {
      "sampler": 0,
      "source": 0
    },
    {
      "sampler": 0,
      "source": 1
    }
  ]
}

