{
  "accessors": [
    {
      "bufferView": 2,
      "componentType": 5126,
      "count": 35248,
      "max": [
        6.7451572418212891,
        6.7281084060668945,
        9.5773553848266602
      ],
      "min": [
        -6.891777515411377,
        -6.916132926940918,
        -9.940922737121582
      ],
      "type": "VEC3"
    },
    {
      "bufferView": 2,
      "byteOffset": 422976,
      "componentType": 5126,
      "count": 35248,
      "max": [
        0.99999135732650757,
        0.99999982118606567,
        0.99999916553497314
      ],
      "min": [
        -0.99997705221176147,
        -1,
        -1
      ],
      "type": "VEC3"
    },
    {
      "bufferView": 3,
      "componentType": 5126,
      "count": 35248,
      "max": [
        0.9999924898147583,
        0.99999368190765381,
        0.99997872114181519,
        1
      ],
      "min": [
        -0.99987661838531494,
        -0.99984860420227051,
        -0.99996215105056763,
        -1
      ],
      "type": "VEC4"
    },
    {
      "bufferView": 1,
      "componentType": 5126,
      "count": 35248,
      "max": [
        0.99805289506912231,
        0.99945062398910522
      ],
      "min": [
        0.00049894192488864064,
        0.00049010018119588494
      ],
      "type": "VEC2"
    },
    {
      "bufferView": 0,
      "componentType": 5125,
      "count": 190845,
      "max": [
        35247
      ],
      "min": [
        0
      ],
      "type": "SCALAR"
    }
  ],
  "asset": {
    "extras": {
      "author": "3dhdscan (https://sketchfab.com/3dhdscan)",
      "license": "CC-BY-4.0 (http://creativecommons.org/licenses/by/4.0/)",
      "source": "https://sketchfab.com/models/bd1acb8d93ca4bf5a2b61d567583e931",
      "title": "Wooden Mermaid - Frymburk"
    },
    "generator": "Sketchfab-3.19.4",
    "version": "2.0"
  },
  "bufferViews": [
    {
      "buffer": 0,
      "byteLength": 763380,
      "byteOffset": 0,
      "name": "floatBufferViews",
      "target": 34963
    },
    {
      "buffer": 0,
      "byteLength": 281984,
      "byteOffset": 763380,
      "byteStride": 8,
      "name": "floatBufferViews",
      "target": 34962
    },
    {
      "buffer": 0,
      "byteLength": 845952,
      "byteOffset": 1045364,
      "byteStride": 12,
      "name": "floatBufferViews",
      "target": 34962
    },
    {
      "buffer": 0,
      "byteLength": 563968,
      "byteOffset": 1891316,
      "byteStride": 16,
      "name": "floatBufferViews",
      "target": 34962
    }
  ],
  "buffers": [
    {
      "byteLength": 2455284,
      "uri": "scene.bin"
    }
  ],
  "images": [
    {
      "uri": "textures/morska_vila_baseColor.jpeg"
    },
    {
      "uri": "textures/morska_vila_normal.jpeg"
    },
    {
      "uri": "textures/morska_vila_metallicRoughness.png"
    }
  ],
  "materials": [
    {
      "doubleSided": true,
      "name": "morska_vila",
      "normalTexture": {
        "index": 1,
        "scale": 1,
        "texCoord": 0
      },
      "occlusionTexture": {
        "index": 2,
        "strength": 1,
        "texCoord": 0
      },
      "pbrMetallicRoughness": {
        "baseColorFactor": [
          1,
          1,
          1,
          1
        ],
        "baseColorTexture": {
          "index": 0,
          "texCoord": 0
        },
        "metallicFactor": 0,
        "roughnessFactor": 0.76048018289999997
      }
    }
  ],
  "meshes": [
    {
      "name": "morska_vila_morska_vila_0",
      "primitives": [
        {
          "attributes": {
            "NORMAL": 1,
            "POSITION": 0,
            "TANGENT": 2,
            "TEXCOORD_0": 3
          },
          "indices": 4,
          "material": 0,
          "mode": 4
        }
      ]
    }
  ],
  "nodes": [
    {
      "children": [
        1
      ],
      "name": "RootNode (gltf orientation matrix)",
      "rotation": [
        -0.70710678118654746,
        -0,
        -0,
        0.70710678118654757
      ]
    },
    {
      "children": [
        2
      ],
      "matrix": [
        0,
        1,
        0,
        0,
        1,
        0,
        0,
        0,
        0,
        0,
        -1,
        0,
        -0.16731929779052734,
        0.16731929779052734,
        0.36355400085449219,
        1
      ],
      "name": "RootNode (model correction matrix)"
    },
    {
      "children": [
        3
      ],
      "matrix": [
        1,
        0,
        0,
        0,
        0,
        -1,
        0,
        0,
        0,
        0,
        -1,
        0,
        0,
        0,
        0,
        1
      ],
      "name": "morska_vila.FBX"
    },
    {
      "children": [
        4
      ],
      "name": "RootNode"
    },
    {
      "children": [
        5
      ],
      "name": "morska_vila"
    },
    {
      "mesh": 0,
      "name": "morska_vila_morska_vila_0"
    }
  ],
  "samplers": [
    {
      "magFilter": 9729,
      "minFilter": 9987,
      "wrapS": 10497,
      "wrapT": 10497
    }
  ],
  "scene": 0,
  "scenes": [
    {
      "name": "OSG_Scene",
      "nodes": [
        0
      ]
    }
  ],
  "textures": [
    {
      "sampler": 0,
      "source": 0
    },
    {
      "sampler": 0,
      "source": 1
    },
    {
      "sampler": 0,
      "source": 2
    }
  ]
}

