{
  "accessors": [
    {
      "bufferView": 1,
      "componentType": 5126,
      "count": 232,
      "max": [
        714.2354736328125,
        261.54159545898438,
        206.79969787597656
      ],
      "min": [
        17.117439270019531,
        -261.54159545898438,
        24.3125
      ],
      "type": "VEC3"
    },
    {
      "bufferView": 1,
      "byteOffset": 2784,
      "componentType": 5126,
      "count": 232,
      "max": [
        0.99554932117462158,
        0.98866862058639526,
        0.99970299005508423
      ],
      "min": [
        -1,
        -0.98866862058639526,
        -0.49083349108695984
      ],
      "type": "VEC3"
    },
    {
      "bufferView": 0,
      "componentType": 5125,
      "count": 306,
      "max": [
        231
      ],
      "min": [
        0
      ],
      "type": "SCALAR"
    },
    {
      "bufferView": 1,
      "byteOffset": 5568,
      "componentType": 5126,
      "count": 535,
      "max": [
        730.06549072265625,
        407.14389038085938,
        122.90630340576172
      ],
      "min": [
        -173.98359680175781,
        -407.14389038085938,
        3.4845480918884277
      ],
      "type": "VEC3"
    },
    {
      "bufferView": 1,
      "byteOffset": 11988,
      "componentType": 5126,
      "count": 535,
      "max": [
        0.73391598463058472,
        0.8886067271232605,
        0.77453607320785522
      ],
      "min": [
        -0.87758409976959229,
        -0.98480129241943359,
        -1
      ],
      "type": "VEC3"
    },
    {
      "bufferView": 0,
      "byteOffset": 1224,
      "componentType": 5125,
      "count": 681,
      "max": [
        534
      ],
      "min": [
        0
      ],
      "type": "SCALAR"
    },
    {
      "bufferView": 1,
      "byteOffset": 18408,
      "componentType": 5126,
      "count": 1472,
      "max": [
        742.02691650390625,
        431.70458984375,
        171.76589965820312
      ],
      "min": [
        -239.82380676269531,
        -431.70458984375,
        9.9695520401000977
      ],
      "type": "VEC3"
    },
    {
      "bufferView": 1,
      "byteOffset": 36072,
      "componentType": 5126,
      "count": 1472,
      "max": [
        0.98554760217666626,
        1,
        1
      ],
      "min": [
        -1,
        -1,
        -1
      ],
      "type": "VEC3"
    },
    {
      "bufferView": 0,
      "byteOffset": 3948,
      "componentType": 5125,
      "count": 1974,
      "max": [
        1471
      ],
      "min": [
        0
      ],
      "type": "SCALAR"
    }
  ],
  "asset": {
    "extras": {
      "author": "UC San Diego - Digital Media Lab (https://sketchfab.com/dml-ucsdlibrary)",
      "license": "CC-BY-4.0 (http://creativecommons.org/licenses/by/4.0/)",
      "source": "https://sketchfab.com/models/1100941c4eb540b091b2917156dc7df2",
      "title": "Loggerhead Sea Turtle (low poly)"
    },
    "generator": "Sketchfab-3.18.7",
    "version": "2.0"
  },
  "bufferViews": [
    {
      "buffer": 0,
      "byteLength": 11844,
      "byteOffset": 0,
      "name": "floatBufferViews",
      "target": 34963
    },
    {
      "buffer": 0,
      "byteLength": 53736,
      "byteOffset": 11844,
      "byteStride": 12,
      "name": "floatBufferViews",
      "target": 34962
    }
  ],
  "buffers": [
    {
      "byteLength": 65580,
      "uri": "scene.bin"
    }
  ],
  "materials": [
    {
      "doubleSided": false,
      "emissiveFactor": [
        0,
        0,
        0
      ],
      "name": "Color_D01",
      "pbrMetallicRoughness": {
        "baseColorFactor": [
          1,
          0.94901999999999997,
          0.80000000000000004,
          1
        ],
        "metallicFactor": 0,
        "roughnessFactor": 0.59999999999999998
      }
    },
    {
      "doubleSided": false,
      "emissiveFactor": [
        0,
        0,
        0
      ],
      "name": "lightbrown",
      "pbrMetallicRoughness": {
        "baseColorFactor": [
          0.73725499999999999,
          0.50196099999999999,
          0.39607799999999999,
          1
        ],
        "metallicFactor": 0,
        "roughnessFactor": 0.59999999999999998
      }
    },
    {
      "doubleSided": false,
      "emissiveFactor": [
        0,
        0,
        0
      ],
      "name": "Color_F01",
      "pbrMetallicRoughness": {
        "baseColorFactor": [
          0.89803900000000003,
          1,
          0.80000000000000004,
          1
        ],
        "metallicFactor": 0,
        "roughnessFactor": 0.59999999999999998
      }
    }
  ],
  "meshes": [
    {
      "name": "Material2",
      "primitives": [
        {
          "attributes": {
            "NORMAL": 1,
            "POSITION": 0
          },
          "indices": 2,
          "material": 1,
          "mode": 4
        }
      ]
    },
    {
      "name": "Material2",
      "primitives": [
        {
          "attributes": {
            "NORMAL": 4,
            "POSITION": 3
          },
          "indices": 5,
          "material": 0,
          "mode": 4
        }
      ]
    },
    {
      "name": "Material2",
      "primitives": [
        {
          "attributes": {
            "NORMAL": 7,
            "POSITION": 6
          },
          "indices": 8,
          "material": 2,
          "mode": 4
        }
      ]
    }
  ],
  "nodes": [
    {
      "children": [
        1
      ],
      "name": "RootNode (gltf orientation matrix)",
      "rotation": [
        -0.70710678118654746,
        -0,
        -0,
        0.70710678118654757
      ]
    },
    {
      "children": [
        2
      ],
      "name": "RootNode (model correction matrix)"
    },
    {
      "children": [
        3
      ],
      "name": "Collada visual scene group"
    },
    {
      "children": [
        6,
        7,
        8,
        4
      ],
      "name": "SketchUp"
    },
    {
      "children": [
        5
      ],
      "matrix": [
        -0.76971020000000001,
        -0.63839349999999995,
        -1.0408339999999999e-17,
        0,
        0.021412750000000001,
        -0.025817320000000001,
        0.99943729999999997,
        0,
        -0.6380342,
        0.76927710000000005,
        0.033541620000000001,
        0,
        -1962.655,
        2664.1930000000002,
        168.9906,
        1
      ],
      "name": "skp_camera_Last_Saved_SketchUp_View"
    },
    {
      "name": "ID1"
    },
    {
      "mesh": 0,
      "name": "Material2"
    },
    {
      "mesh": 1,
      "name": "Material2"
    },
    {
      "mesh": 2,
      "name": "Material2"
    }
  ],
  "scene": 0,
  "scenes": [
    {
      "name": "OSG_Scene",
      "nodes": [
        0
      ]
    }
  ]
}

